<svg enable-background="new 0 0 189.936 223.914" height="224" viewBox="0 0 189.936 223.914" width="190" xmlns="http://www.w3.org/2000/svg"><path d="m45.382 76.825s9.62-66.254 41.641-75.935c34.86-10.539 57.448 75.935 57.448 75.935l-2.811 1.081s-22.21-80.259-53.016-72.152c-30.624 8.059-39.76 72.152-39.76 72.152z" fill="#7f3f1f"/><path d="m99.349 85.766c-4.966-3.464-5.781-10.874-1.821-16.549 1.62-2.322 3.789-3.995 6.127-4.922 3.373-1.34 7.099-1.126 10.032.92 4.966 3.464 5.782 10.872 1.823 16.547-1.638 2.348-3.837 4.031-6.206 4.952-3.353 1.307-7.044 1.083-9.955-.948z" fill="#fcd060"/><path d="m89.779 89.703c-.475-1.224 6.197-5.713 6.882-5.635s6.167 4.053 6.167 4.053.851 7.557-.218 8.113c-.412.215-1.022-.053-1.679-.477l-.002-.001c-1.053-.679-2.222-1.753-2.891-1.872-.481-.084-.883-.074-1.252-.082-.003 0-.003 0-.006.001-.468-.009-.89-.049-1.372-.35-.356-.221-.542-.533-.674-.875v-.003c-.257-.659-.313-1.428-1-1.857-.419-.262-1.636-.23-2.617-.371l-.002-.001c-.647-.095-1.189-.263-1.336-.643z" fill="#fcd060"/><path d="m102.981 87.136s-3.304-.922-5.761-3.59c-.686-.745-1.696.394-.784 1.259 1.831 1.737 4.461 2.963 5.858 3.434 1.384.467 1.686-.793.687-1.103z" fill="#f9aa53"/><path d="m111.167 54.402c-1.3.183-1.959 8.198-1.556 8.757.403.56 6.548 3.402 6.548 3.402s7.01-2.948 6.973-4.152c-.014-.464-.546-.866-1.236-1.232l-.002-.001c-1.107-.587-2.615-1.083-3.046-1.609-.308-.379-.496-.734-.683-1.053-.001-.003-.001-.003-.002-.005-.237-.404-.478-.753-.976-1.026-.366-.203-.73-.213-1.093-.161l-.003.001c-.701.097-1.399.424-2.109.034-.434-.238-.999-1.316-1.602-2.102l-.002-.001c-.396-.518-.807-.909-1.211-.852z" fill="#fcd060"/><path d="m115.375 67.176s-2.418-2.433-5.946-3.274c-.985-.235-.484-1.672.715-1.299 2.409.749 4.765 2.446 5.858 3.435 1.083.979.131 1.858-.627 1.138z" fill="#f9aa53"/><path d="m88.432 93.741c-5.742 2.619-12.824-.578-15.817-7.141-1.225-2.686-1.576-5.519-1.168-8.109.587-3.737 2.754-6.968 6.145-8.515 5.742-2.619 12.823.577 15.816 7.139 1.238 2.715 1.583 5.581 1.153 8.195-.605 3.702-2.764 6.896-6.129 8.431z" fill="#6eb77b"/><path d="m86.89 104.417c-1.35-.222-1.841-8.591-1.407-9.164s6.907-3.385 6.907-3.385 7.233 3.243 7.165 4.498c-.026.484-.59.889-1.318 1.254l-.002.001c-1.168.584-2.752 1.065-3.213 1.602-.33.388-.534.753-.737 1.08-.001.003-.001.003-.002.006-.257.415-.516.773-1.042 1.046-.387.202-.766.204-1.142.141l-.003-.001c-.728-.119-1.447-.476-2.197-.087-.458.237-1.074 1.347-1.721 2.151l-.002.001c-.428.529-.867.927-1.286.857z" fill="#6eb77b"/><path d="m91.588 91.208s-2.58 2.476-6.277 3.267c-1.033.221-.545 1.731.714 1.371 2.529-.722 5.025-2.432 6.189-3.436 1.152-.994.181-1.934-.626-1.202z" fill="#417049"/><path d="m66.552 66.503c-.525 1.264 6.318 6.105 7.034 6.041.716-.065 6.526-4.072 6.526-4.072s1.072-7.854-.029-8.46c-.424-.234-1.066.031-1.761.456l-.002.001c-1.114.682-2.359 1.772-3.059 1.88-.504.075-.922.055-1.307.054-.003-.001-.003-.001-.006-.001-.488-.002-.929.029-1.439.331-.376.221-.578.542-.724.895l-.001.003c-.284.681-.361 1.48-1.088 1.911-.443.263-1.711.199-2.736.323l-.002.001c-.674.083-1.244.245-1.406.637z" fill="#6eb77b"/><path d="m80.247 69.501s-3.465.88-6.092 3.6c-.734.76-1.757-.452-.787-1.331 1.95-1.765 4.722-2.979 6.189-3.436 1.454-.452 1.738.869.69 1.167z" fill="#417049"/><g transform="matrix(.83044821 0 0 .82884889 560 333)"><path d="m-642.012-348.105c.84-.851 2.208-.86 3.055-.021l31.397 31.096c.848.84.854 2.21.015 3.061-.84.851-2.208.86-3.055.021l-31.397-31.096c-.848-.84-.855-2.21-.015-3.061z" fill="#f995b2"/><path d="m-616.839-306.544c.001-1.634.229-3.222.662-4.714.597-2.07 1.584-3.981 2.867-5.639 2.067-2.669 4.918-4.695 8.21-5.73.608-.191 1.233-.353 1.876-.47.729-.145 1.485-.237 2.248-.275.298-.019.592-.027.894-.029 9.264-.01 16.784 7.517 16.791 16.823.01 9.302-7.489 16.85-16.757 16.857-9.264.01-16.784-7.517-16.791-16.823z" fill="#f46091"/></g><path d="m71.648 85.335c.345.461.75.923 1.211 1.365 1.426.13 3.215.238 5.256.307.969.037 1.994.065 3.061.084s2.176.028 3.317.028h.745c1.081-.005 2.129-.019 3.136-.037 1.961-.042 3.765-.112 5.325-.205.909-.051 1.738-.112 2.469-.182.568-.051 1.081-.107 1.524-.168-.07-.396-.196-.792-.368-1.193-.298-.69-.731-1.375-1.291-2.05-.135-.163-.275-.326-.429-.489-.112-.121-.228-.242-.349-.363-.158-.163-.326-.321-.503-.48-.084-.075-.168-.149-.252-.224-.256-.224-.531-.447-.815-.662-.168-.13-.345-.256-.522-.382-.191-.135-.387-.27-.587-.401 0-.005-.005-.005-.005-.005-.051-.033-.103-.065-.154-.098-.144-.093-.294-.186-.443-.275v-.005c-.163-.098-.331-.196-.499-.289l-.168-.098c-.214-.116-.429-.238-.652-.349-.005-.005-.014-.005-.019-.009-.196-.103-.396-.2-.601-.298-.266-.13-.54-.256-.82-.377-.21-.093-.419-.182-.629-.265-.396-.159-.797-.312-1.211-.457-.168-.056-.335-.112-.503-.168l-.005-.005c-.252-.084-.508-.163-.769-.242-.331-.098-.657-.186-.988-.27-.275-.07-.55-.135-.825-.196-.014-.005-.028-.005-.042-.009-.205-.047-.41-.089-.61-.126-.205-.042-.41-.079-.61-.112-.14-.028-.284-.051-.424-.07-.256-.042-.512-.074-.764-.107-.196-.023-.391-.042-.587-.061-.158-.019-.312-.033-.471-.042-.089-.005-.177-.014-.261-.019-.713-.051-1.402-.061-2.069-.033-.205.009-.41.019-.61.033-.391.023-.778.065-1.146.112-.009.005-.019.005-.028.005-.373.051-.741.116-1.09.196-.005 0-.009.005-.014.005-.354.079-.699.168-1.025.27-.112.037-.228.075-.335.116-.005 0-.014.005-.019.005-.168.061-.326.121-.485.186-.308.126-.596.265-.867.415-.005.005-.009.005-.014.009-.103.056-.205.116-.303.177-1.081.671-1.836 1.556-2.157 2.632-.448 1.54.055 3.241 1.294 4.876z" fill="#f458b1"/><path d="m73.116 82.367v.005c.466.908 1.211 1.812 2.176 2.66.373.331.783.657 1.221.969.005 0 .009.005.009.005.494.349 1.025.685 1.593 1.002.969.037 1.994.065 3.061.084s2.176.028 3.317.028h.745c1.081-.005 2.129-.019 3.136-.037 1.961-.042 3.765-.112 5.325-.205.909-.051 1.738-.112 2.469-.182.075-.154.135-.317.186-.485.089-.317.135-.638.14-.969.005-.489-.089-.988-.275-1.491-.051-.154-.116-.312-.186-.466-.135-.163-.275-.326-.429-.489-.112-.121-.228-.242-.349-.363-.158-.163-.326-.321-.503-.48-.084-.075-.168-.149-.252-.224-.256-.224-.531-.447-.815-.662-.168-.13-.345-.256-.522-.382-.191-.135-.387-.27-.587-.401 0-.005-.005-.005-.005-.005-.051-.033-.103-.065-.154-.098-.144-.093-.294-.186-.443-.275v-.005c-.163-.098-.331-.196-.499-.289-.056-.033-.112-.061-.168-.093v-.005c-.214-.116-.429-.238-.652-.349-.005-.005-.014-.005-.019-.009-.196-.103-.396-.2-.601-.298-.266-.13-.54-.256-.82-.377-.21-.093-.419-.182-.629-.265-.396-.159-.797-.312-1.211-.457-.168-.056-.335-.112-.503-.168l-.005-.005c-.252-.084-.508-.163-.769-.242-.331-.098-.657-.186-.988-.27-.275-.07-.55-.135-.825-.196-.014-.005-.028-.005-.042-.009-.205-.047-.41-.089-.61-.126-.205-.042-.41-.079-.61-.112-.14-.028-.284-.051-.424-.07-.256-.042-.512-.074-.764-.107-.196-.023-.391-.042-.587-.061-.158-.019-.312-.033-.471-.042-.089-.005-.177-.014-.261-.019-.331-.019-.657-.033-.978-.037-.005-.005-.009 0-.014 0-.363-.009-.722-.005-1.076.005-.205.009-.41.019-.61.033-.391.023-.778.065-1.146.112-.009.005-.019.005-.028.005-.377.056-.741.121-1.09.196-.005 0-.009.005-.014.005-.354.079-.699.168-1.025.27-.936.582-1.584 1.351-1.859 2.283-.296 1.006-.124 2.087.44 3.163z" fill="#ffabbf"/><path d="m96.221 83.751c.186.503.28 1.002.275 1.491-.005.331-.051.652-.14.969-.051.168-.112.331-.186.485.568-.051 1.081-.107 1.524-.168-.07-.396-.196-.792-.368-1.193-.298-.69-.731-1.375-1.291-2.05.069.154.135.312.186.466z" fill="#f9aa53"/><path d="m71.648 85.335c.345.461.75.923 1.211 1.365 1.426.13 3.215.238 5.256.307-.568-.317-1.1-.652-1.593-1.002 0 0-.005-.005-.009-.005-.438-.312-.848-.638-1.221-.969-.964-.848-1.71-1.752-2.176-2.66-.005 0 0-.005 0-.005-.564-1.076-.736-2.157-.438-3.164.275-.932.923-1.701 1.859-2.283-.112.037-.228.075-.335.116-1.98.694-3.378 1.854-3.844 3.425-.452 1.539.051 3.24 1.29 4.875z" fill="#d13b58"/><path d="m92.575 80.282c-.398-.264-.823-.521-1.266-.763.443.242.863.498 1.266.763z" fill="#ffa9de"/><path d="m185.123 59.801c-.022.262-.049.524-.084.786-.178 1.483-.502 2.944-.968 4.36-.058.178-.115.355-.178.528-.568 1.541-1.336 3.006-2.287 4.351-.067.093-.133.182-.2.266-.013.018-.022.031-.036.049-1.794 2.278-4.182 2.908-6.695 1.714-2.46-1.168-3.69-3.685-3.09-5.914.062-.235.147-.462.253-.684.013-.031.044-.098.067-.147.009-.013.018-.031.027-.044.258-.511.542-1.008.852-1.492.351-.533.635-1.088.861-1.661.049-.138.098-.275.147-.413.089-.258.16-.515.218-.777.036-.124.058-.249.08-.373.004-.009.009-.022.009-.031.2-1.07.204-2.167.018-3.232-.013-.067-.027-.133-.04-.204-.133-.706-.351-1.394-.657-2.056-.004-.009-.009-.018-.013-.027-.626-1.381-1.603-2.637-2.908-3.618-.036-.031-.075-.058-.115-.089-.444-.324-.906-.599-1.381-.83-.075-.04-.146-.071-.222-.107-1.23-.559-2.553-.83-3.863-.821-.32 0-.639.018-.955.053-.013 0-.022.005-.031.005-1.31.138-2.588.546-3.734 1.212-.018.009-.036.018-.049.027-1.03.595-1.949 1.394-2.686 2.38-.009.005-.009.005-.009.009-.04.044-.071.084-.102.129-.142.195-1.412 2.167-3.428 5.319-.835 1.305-1.798 2.811-2.864 4.48-.781 1.221-1.616 2.531-2.495 3.912-.826 1.292-1.687 2.646-2.584 4.049-.937 1.474-1.909 2.997-2.904 4.555-.839 1.323-1.701 2.669-2.566 4.036-1.074 1.683-2.158 3.388-3.25 5.097-.817 1.283-1.634 2.571-2.451 3.849-1.296 2.042-2.593 4.076-3.854 6.06-1.03 1.621-2.042 3.206-3.024 4.746-.857 1.354-1.696 2.669-2.504 3.938-.959 1.51-1.874 2.948-2.735 4.302-.226.36-.453.71-.67 1.052-.44.688-.861 1.354-1.261 1.989-.826.027-1.692.049-2.593.067-.44.009-.888.013-1.341.018-.595.005-1.203.009-1.82.009h-.71c-1.03-.004-2.029-.018-2.988-.036-1.163-.027-2.273-.062-3.299-.106-.071 0-.142-.005-.213-.009.044-.071.089-.142.129-.204l1.128-1.767 1.714-2.686 2.748-4.307 2.993-4.693 2.211-3.463c.076-.124.147-.235.213-.333l2.917-4.573 3.552-5.568 2.882-4.515v-.004l2.771-4.338 2.837-4.449 2.46-3.854.222-.346 2.819-4.422 2.686-4.214.08-.124c.031-.044.049-.071.049-.071l3.201-5.022s.009-.018.027-.044l2.38-3.725c.067-.093.133-.191.2-.284.355-.502.728-.986 1.106-1.447.022-.036.053-.067.08-.098 1.958-2.375 4.165-4.218 6.576-5.505.071-.04.147-.08.218-.116.08-.044.164-.084.249-.124.249-.121.505-.239.766-.352 2.878-1.285 6.025-1.829 9.393-1.593 1.669.115 3.272.435 4.795.928 2.424.781 4.64 2.007 6.553 3.57.244.195.484.4.715.613 1.292 1.163 2.433 2.486 3.388 3.938 1.341 2.034 2.318 4.315 2.855 6.753.403 1.847.554 3.783.412 5.763z" fill="#d13b58"/><g fill="#ffabbf"><path d="m171.214 39.152c2.686.867 5.157 2.297 7.248 4.193-3.124-.092-7.85 7.922-7.85 7.922-.717-.539-1.498-.987-2.325-1.335 0 0 .996-9.224 2.927-10.78z"/><path d="m155.775 40.418c2.062-1.079 4.666-1.913 7.023-2.115-.829 3.517.897 7.164 2.118 11.032-2.309-.05-4.83 1.33-4.83 1.33s-3.613-6.186-4.311-10.247z"/><path d="m128.285 78.366 2.767-4.338c1.778 2.039 6.473 5.541 9.492 5.473l-3.252 5.103c-2.32-.244-7.793-3.449-9.007-6.238z"/><path d="m139.394 60.954c.917-1.539 2.811-4.406 2.811-4.406 1.21 2.829 5.985 6.516 8.893 6.399-.688 1.14-1.514 2.456-2.481 3.913-2.057.019-7.733-3.059-9.223-5.906z"/><path d="m145.41 51.524s2.381-4.01 3.789-5.598c1.731 3.535 5.743 6.75 8.4 6.868-.252.372-3.806 5.924-3.641 5.677-3.145-.31-7.72-4.027-8.548-6.947z"/><path d="m181.409 70.094c-1.428 2.122-3.763 3.117-6.68 1.814-2.771-1.238-4.022-4.266-2.891-6.65.021-.045.068-.143.091-.19 3.834.143 6.661 2.182 9.48 5.026z"/><path d="m185.053 60.602c-.145 1.485-.471 2.946-.973 4.351-3.111-2.03-6.131-2.886-10.436-3.038.195-.519.348-1.053.456-1.597 4.312-1.89 8.748-2.569 10.953.284z"/><path d="m181.854 47.284c1.365 2.053 2.333 4.344 2.854 6.753-3.092-2.055-6.748 1.236-10.562 3.204-.176-.946-.47-1.866-.874-2.739 2.858-4.945 5.555-7.284 8.582-7.218z"/><path d="m133.888 69.568 2.684-4.191c1.735 2.077 6.44 5.689 9.45 5.531-1.171 1.876-2.215 3.545-2.904 4.555-2.002.076-7.692-3.034-9.23-5.895z"/><path d="m116.51 96.817c.905-1.426 1.904-3.008 2.423-3.793 1.645 2.224 6.046 6.277 9.028 6.231l-2.509 3.94c-2.374-.297-7.796-3.599-8.942-6.378z"/><path d="m121.846 88.445c1.216-1.945 2.406-3.813 3.557-5.563 1.506 2.075 6.373 5.71 9.44 5.564-.911 1.606-2.32 3.762-3.862 6.064-2.035.04-7.627-3.212-9.135-6.065z"/><path d="m122.715 107.495-.67 1.052-1.265 1.989h-.018c-.826.027-1.692.049-2.593.067-.44.009-.888.013-1.341.018-1.319-.573-2.695-1.345-3.814-2.202-1.079-.821-1.918-1.718-2.247-2.597-.004-.004-.004-.004-.004-.009l2.748-4.302s0 .004.004.004c1.456 2.038 6.087 6.043 9.177 5.981h.023z"/></g><path d="m107.793 110.479h.004l-.031.044c.009-.013.018-.031.027-.044z" fill="#b580f9"/><path d="m108.01 110.487c-.071 0-.142-.005-.213-.009.044-.071.089-.142.129-.204.018.062.044.133.084.213z" fill="#b580f9"/><path d="m125.369 82.024c-.468 6.294-6.68 10.962-13.873 10.427-2.944-.219-5.596-1.275-7.67-2.88-2.994-2.313-4.782-5.768-4.505-9.485.468-6.294 6.678-10.962 13.871-10.427 2.976.221 5.654 1.299 7.739 2.934 2.953 2.312 4.713 5.742 4.438 9.431z" fill="#b580f9"/><path d="m133.985 88.514c-.845 1.077-8.416-2.522-8.71-3.178s.358-7.684.358-7.684 6.325-4.779 7.391-4.115c.411.256.495.945.465 1.759v.002c-.05 1.305-.391 2.924-.143 3.588.181.476.403.831.592 1.166.002.002.002.002.004.005.24.425.429.824.415 1.417-.009.436-.19.77-.427 1.069l-.002.002c-.454.581-1.114 1.039-1.134 1.884-.013.515.664 1.589 1.057 2.544v.002c.259.63.396 1.206.134 1.539z" fill="#b580f9"/><path d="m124.668 78.038s.928 3.453-.158 7.074c-.303 1.012 1.255 1.311 1.546.035.585-2.564.287-5.575-.033-7.079-.317-1.488-1.608-1.09-1.355-.03z" fill="#7051bc"/><path d="m133.851 86.973v.002s-3.614-2.126-3.353-2.749 2.838-1.093 3.43-1.681c-.454.581-1.114 1.039-1.134 1.884-.013.515.663 1.589 1.057 2.544z" fill="#9564e2"/><path d="m90.962 88.091c.855 1.069 8.393-2.599 8.68-3.257.288-.659-.428-7.68-.428-7.68s-6.368-4.721-7.429-4.047c-.409.259-.486.95-.448 1.763v.002c.062 1.304.418 2.921.176 3.586-.177.478-.395.835-.581 1.172-.002.002-.002.002-.004.005-.236.427-.422.828-.402 1.42.013.436.197.768.436 1.065l.002.002c.46.577 1.123 1.029 1.151 1.873.017.515-.649 1.595-1.034 2.554v.002c-.252.631-.384 1.208-.119 1.54z" fill="#b580f9"/><path d="m100.183 77.53s-.897 3.461.223 7.072c.313 1.009-1.243 1.323-1.545.049-.608-2.559-.338-5.573-.032-7.079.302-1.491 1.597-1.105 1.354-.042z" fill="#7051bc"/><path d="m155.502 202.405c-2.164-.024-4.459-.178-6.866-.462-8.107 24.321-79.448 33.238-104.58 1.621-1.881.17-3.689.276-5.416.308-14.568.284-24.377-4.167-30.458-11.569-.008 0-.008 0-.008 0-23.948-29.12 9.671-103.907 37.211-115.475 0 0 8.107 2.781 20.697 5.099h.008c.519.097 1.054.186 1.589.284 15.241 2.675 36.473 4.515 57.778.243.648-.13 1.289-.267 1.937-.413 5.74-1.248 11.463-2.951 17.073-5.213 12.177 3.3 27.547 24.815 36.944 49.136 13.718 35.549 14.65 77.09-25.909 76.441z" fill="#ffba55"/><path d="m116.208 140.33c-2.003-4.724-3.243-20.267 3.243-20.267s18.646 13.782 17.025 17.025c-1.622 3.242-18.686 6.974-20.268 3.242z" fill="#7f3f1f"/><path d="m155.502 202.405c-2.164-.024-4.459-.178-6.866-.462-8.107 24.321-79.448 33.238-104.58 1.621-1.881.17-3.689.276-5.416.308-14.568.284-24.377-4.167-30.458-11.569.409.023 11.552 8.018 35.063 9.639 21.889 12.971 77.827 18.646 107.822-12.16 25.942-2.432 33.238-26.753 30.344-63.818 13.718 35.549 14.65 77.09-25.909 76.441z" fill="#ea9249"/><path d="m155.502 202.405c-2.164-.024-4.459-.178-6.866-.462 0 0 16.076-57.389-23.178-119.488.648-.13 1.289-.267 1.937-.413 5.156 7.239 38.995 57.704 28.107 120.363z" fill="#d87e35"/><path d="m44.056 203.564c-1.881.17-3.689.276-5.416.308-9.858-57.113 10.547-102.074 27.442-121.945h.008c.519.097 1.054.186 1.589.284-35.905 48.796-26.866 114.868-23.623 121.353z" fill="#d87e35"/><path d="m72.686 141.077c2.003-4.724 3.243-20.267-3.243-20.267s-18.646 13.782-17.025 17.025c1.622 3.242 18.685 6.974 20.268 3.242z" fill="#7f3f1f"/><path d="m89.455 162.219c-.811-1.621 4.435-10.754 6.486-9.728 1.621.811 6.086 8.907 5.675 9.728-.811 1.621-11.35 1.621-12.161 0z" fill="#7f3f1f"/><path d="m56.216 168.704c1.968-.787 6.418 2.058 12.798 5.193-.638 1.293-1.448 3.725-.638 4.536.625.625 3.937 2.432 4.864 2.432.811 0 2.432-1.621 3.677-3.516 5.317 1.983 11.446 3.516 18.211 3.516 21.078 0 32.428-13.782 35.671-12.16 3.243 1.621-.811 11.35-4.864 15.403-1 1-3.145 3.146-6.313 5.453-1.794-2.21-3.415-3.02-4.226-3.02-1.645 0-4.864 2.432-5.675 3.243s-.811 3.243-.24 5.375c-4.131 1.613-8.941 2.732-14.352 2.732-17.025 0-25.942-7.296-32.428-12.971-6.1-5.34-10.021-14.801-6.485-16.216z" fill="#7f3f1f"/></svg>